/* XPM */
static char *_19846e8a40e4bbab343b118759a99c1pvqr8gl5J49bD6tI[] = {
/* columns rows colors chars-per-pixel */
"60 60 256 2 ",
"   c #47704C",
".  c #654A28",
"X  c #362D2D",
"o  c #F6DFC9",
"O  c #633A28",
"+  c #423725",
"@  c #613E21",
"#  c None",
"$  c #232119",
"%  c #2D2419",
"&  c #B89565",
"*  c #3D2E23",
"=  c #93632E",
"-  c #957452",
";  c #7F6C52",
":  c #81461D",
">  c #F4E2C6",
",  c #3D2E21",
"<  c #39261A",
"1  c #2D281C",
"2  c #F8E4D7",
"3  c #5C3522",
"4  c #312A1A",
"5  c #2A2115",
"6  c #B9A490",
"7  c #D8AD77",
"8  c #050A05",
"9  c #E8CFAC",
"0  c #493930",
"q  c #D5B992",
"w  c #D6BB9C",
"e  c #E9CFAE",
"r  c #CEAB7F",
"t  c #A08C68",
"y  c #BF8B56",
"u  c #DDB181",
"i  c #503721",
"p  c #BA8552",
"a  c #704A35",
"s  c #98856D",
"d  c #908A83",
"f  c #8F451D",
"g  c #984727",
"h  c #48221C",
"j  c #16130A",
"k  c #D7B58B",
"l  c #B5926E",
"z  c #15190E",
"x  c #1F2116",
"c  c #080A07",
"v  c #EED9BD",
"b  c #E7CCA8",
"n  c #DFB98B",
"m  c #18190F",
"M  c #212117",
"N  c #402F22",
"B  c #0C0D09",
"V  c #4D3E2F",
"C  c #F0DBC0",
"Z  c #E2CBB9",
"A  c #15150E",
"S  c #684838",
"D  c #291F15",
"F  c #7F4420",
"G  c #AF906B",
"H  c #6B3A21",
"J  c #9B8569",
"K  c #CA9963",
"L  c #907F63",
"P  c #8A663E",
"I  c #8E795B",
"U  c #95724C",
"Y  c #95481F",
"T  c #7D441F",
"R  c #D1AD80",
"E  c #6F3025",
"W  c #F1E0C2",
"Q  c #0C100B",
"!  c #F3D7B7",
"~  c #D4BCA7",
"^  c #EBCDAA",
"/  c #5D4633",
"(  c #DEB38D",
")  c #EFD9B9",
"_  c #938D89",
"`  c #C3A388",
"'  c #B29063",
"]  c #C8AD98",
"[  c #ECCAAE",
"{  c #D3A26F",
"}  c #A59A90",
"|  c #958369",
" . c #954F2D",
".. c #927D6D",
"X. c #1C190B",
"o. c #92856B",
"O. c #9C9183",
"+. c #B68E60",
"@. c #887154",
"#. c #C39A74",
"$. c #252117",
"%. c #050604",
"&. c #BE6133",
"*. c #FDF4EB",
"=. c #0C0D09",
"-. c #6B3423",
";. c #FDF7F0",
":. c #020203",
">. c #10110C",
",. c #1B1A11",
"<. c #110F08",
"1. c #2F2115",
"2. c #703B27",
"3. c #FCEDE6",
"4. c #F7E7DE",
"5. c #2E2A1F",
"6. c #291E12",
"7. c #392418",
"8. c #29281F",
"9. c #4D493A",
"0. c #15140B",
"q. c #A14C2D",
"w. c #FEF9F2",
"e. c #090A07",
"r. c #1F1E14",
"t. c #322E23",
"y. c #943D21",
"u. c #7E4129",
"i. c #5B2E21",
"p. c #FDF4EF",
"a. c #FDEFEA",
"s. c #C56736",
"d. c #E9D6C8",
"f. c #B6572D",
"g. c #402E21",
"h. c #52281D",
"j. c #FCF0E3",
"k. c #FBEDE0",
"l. c #FDF1E7",
"z. c #F9EBE2",
"x. c #3F3A2D",
"c. c #443F31",
"v. c #25241A",
"b. c #C86B3A",
"n. c #432016",
"m. c #40241A",
"M. c #A74929",
"N. c #64291C",
"B. c #7A3823",
"V. c #7A3C28",
"C. c #48291A",
"Z. c #F8E2CE",
"A. c #F1E4D8",
"S. c #16170E",
"D. c #1D160C",
"F. c #F5DAC3",
"G. c #CEBCAE",
"H. c #3B1E12",
"J. c #793320",
"K. c #AC5834",
"L. c #311A10",
"P. c #8B3F28",
"I. c #713726",
"U. c #823D29",
"Y. c #B8643D",
"T. c #743120",
"R. c #FBEADB",
"E. c #484335",
"W. c #F3D6BD",
"Q. c #A14626",
"!. c #CA6E3E",
"~. c #8A3A1F",
"^. c #382A1C",
"/. c #361D12",
"(. c #A65636",
"). c #B15D38",
"_. c #582A1F",
"`. c #58251E",
"'. c #AA4C2A",
"]. c #8F472B",
"[. c #FDF3EA",
"{. c #B95B2E",
"}. c #4F4536",
"|. c #DBC7BC",
" X c #ECC8A9",
".X c #F0D0B8",
"XX c #25180D",
"oX c #AE5430",
"OX c #9F5337",
"+X c #C57245",
"@X c #633222",
"#X c #B24F28",
"$X c #93432B",
"%X c #934B30",
"&X c #84432D",
"*X c #F9E6D5",
"=X c #353225",
"-X c #F2E0D5",
";X c #4D3D30",
":X c #EEDCCF",
">X c #C26535",
",X c #CB7849",
"<X c #502C1E",
"1X c #C1693D",
"2X c #45261C",
"3X c #D47D4F",
"4X c #3A3528",
"5X c #E0CDBF",
"6X c #E6CFC4",
"7X c #D7C2B2",
"8X c #5E483C",
"9X c #AE9C8A",
"0X c #95816E",
"qX c #9B4224",
"wX c #743523",
"eX c #83351D",
"rX c #AF9886",
"tX c #692B20",
"yX c #8E4328",
"uX c #6E4332",
"iX c #995538",
"pX c #86482F",
"aX c #AB5E3D",
"sX c #4A3527",
"dX c #E4BD95",
"fX c #C3B2A5",
"gX c #53352A",
"hX c #7A4A3A",
"jX c #BAAA99",
"kX c #C9B8AA",
"lX c #C25C32",
"zX c #652E23",
"xX c #B5735A",
"cX c #D0B3A3",
"vX c #CDA79B",
"bX c #AE6D53",
"nX c #D8BDB4",
"mX c #A26853",
"MX c #5B3225",
"NX c #854F3E",
"BX c #D08259",
"VX c #4E271B",
"CX c #D9885C",
"ZX c #D27241",
"AX c #B78D80",
"SX c #BA826F",
"DX c #E3B991",
"FX c #9A6F64",
"GX c #9C5B44",
"HX c #A28F7A",
"JX c #84817E",
"KX c #E2C4AB",
"LX c #6E5B53",
"PX c #4D211B",
"IX c #905132",
"UX c #7E7B7A",
/* pixels */
"                                                                                                                        ",
"                                                      . = & & t t & = X                                                 ",
"                                              . r w b ) v > > > > > v 9 ^ k - X                                         ",
"                                          ' q 9 W 2 k.k.k.j.j.j.j.j.l.j.R.o e n k .                                     ",
"                                      & q e o R.z.k.3.a.3.j.[.[.[.[.l.k.R.R.R.Z.! b r                                   ",
"                                    r 9 C Z.4.4.z.a.[.[.*.*.;.;.w.w.*.j.R.*X*X*XZ.o [ ( &                               ",
"                                X w e C :X-X4.z.a.a.l.*.;.;.;.;.w.;.*.j.R.*X*XZ.Z.o W. Xn =                             ",
"                              X q Z d.d.-XA.z.3.3.3.a.p.;.*.p.p.[.[.l.3.R.*XZ.Z.o F.F..Xu p                             ",
"                              w Z 5X6X:XA.4.4.z.3.a.[.*.;.;.p.p.[.[.l.k.R.*XZ.o F.W.W..XDXy                             ",
"                            ` ~ 7X5Xd.d.-XA.4.3.a.a.[.p.;.;.;.;.p.[.[.l.3.4.2 o F.W..X XdXl X                           ",
"                          & ] fX7X5X6Xd.-X4.z.z.3.l.p.;.w.w.w.w.w.;.*.*.a.4.2 o F.F.W. XDX{ -                           ",
"                          G 6 fX|.7X|.d.A.A.4.R.k.l.;.p.z.A.-XA.4.z.j.l.a.3.R.Z.F.W.F..XdXu p                           ",
"                        . l 9XG.G.G.7Xd.A.4.k.k.[.z.|.AXFXmXbXbXxXxXSXvX6X-X4.2 o W..XW. X7 y                           ",
"                      X - J 6 kXfXG.|.:X4.3.j.-XcXSXOXq.(.K.{.{.{.f.'.g GXAXnX:X:XF..X X X7 y                           ",
"                        ; s 6 jXjXG.d.-X4.:XvXbXOXM.'.f.&.&.&.>Xs.&.#XqXy.P.NXrX6Xd.d. XdXu K                           ",
"                        ; | 9X9XjX|.:X-XnXmXP.Q.oXoX{.&.s.s.>Xb.s.&.f.Q.y.~.eX2.FX|.d..XdX7 K                           ",
"                        ; s HX9XfX5Xd.vXhXJ.~.Q.f.&.&.b.b.!.s.s.s.&.{.'.Q.y.eXI.i.LXG.6XKX7 p                           ",
"                        P L 0XrXkX5XkXhXzXJ.~.q.).&.&.s.!.!.s.>Xs.>X{.f.#XQ.~.wX_.2XLXnXKXR U                           ",
"                        - J 0XrXkX7X0X_.tXJ.~.qXoXf.&.s.b.!.b.b.!.s.>X&.f.'.qXU.`.m.# 0X7XR -                           ",
"                        . I 0XrXG.fX8XPXN.B.~.qXoX{.&.s.b.+X+X,X3X3X+XK.%X$X$X$XT.n.7.}.6 #.=                           ",
"                          ; L rXG.9Xg.n.`.B.yXq.K.Y.+X,X,X,X,XCXCXmXO C.C.h.`.N.B.N.H.^.@.G                             ",
"                            I HXkXd ^.H.`.wX&X&XpXIXGXbX,XBXBXBXiXi.MXuXiXiX].I.N.B.C.^.a +.                            ",
"                            ; s fXJX# L.PXzXh.H.1.7.C.2.iX+X+XaX].u.u.pX%XyXP.$XV.B.2.7.O  .: =                         ",
"                            X o.jXUXv.L.n.H.C.O hX2.-.I.V.OX1XK.P.T.-.MX2Xh.i.-.%XyXV.n.u.Q.y.:                         ",
"                              U } JX8.6./.C.pX%X&X2.-.zXN.wX).oXJ.T.V.NXh @X-.N.$Xq.yXVXB.M.g :                         ",
"                              . O.d t.1./.MXV.zX2X7.uXNX-.N.M.#XeXJ.B.U.&X].P.yXq.q.].i.V.f.OX:                         ",
"                                ..d E.1.n.-.i.C.8X7.uXu.zXtXM.#X~.eXP.%XK.).).).).(.].@X2.&.Y :                         ",
"                                P a gX1.VX2.@X_.V.u.&XU.I.tXM.f.qXy.qXM.oX&.>X1X1X).].2.2.K.Y T                         ",
"                                + 3 @Xm.<X2.2.u.].OXOX].J.T.q.lXM.y.'.f.#X#XlXb.1XK.u.MX2.q.f @                         ",
"                                  T H <XC.-.u.IXaX(.g yXJ.T.q.lX'.eXy.1XZXZX!.ZXY.].-.n.uX(.f @                         ",
"                                    F O m.i.u.(.(.Q.M.oXJ.J.M.lX#XqXy.q.1X3XCX3XY.V.h.L.O g f @                         ",
"                                    S hXg.2X2.%Xq.K.Y.OXT.P.'.!.&.f.'.y.q.Y.3X3XY.wXH.XXC.u.F =                         ",
"                                    T a sX1.<X2.(.Y.Y.P.I.U.q.!.).U.h.n.h.V.aX+XaXI.L.D.7.H P                           ",
"                                    + 3 O 1.XX<XiXY.K.I.VXL.2X2.@Xg.t.6.1.g.uXaXOX-./.6.m.*                             ",
"                                      i O 1.<.H.u.(.&Xm.1.$.r.6.L.^.gXi.h.1.g.pX%Xh.L.1.g.3 +                           ",
"                                    X < 3 # <.XX_.&XMXr.$.7.2Xh.I.V.B.E `.h C.u.pXC.1.6.g., <                           ",
"                                        = 5 0.0.H.2.<X,./.h `.E U.U.J.tXtXzXh.C.O g.# 1.^., <                           ",
"                                          i X.0.6.i.i.7.m.n.`.T.P.$X$XwXwX-.i.m.7.^.5.t.sX0 +                           ",
"                                          @ 1 S.,.m.<Xm.h.`.N.wXV.I.@X_._.-.-.m.XXXXt.4X;X3 .                           ",
"                                          4 , r.r.6.XXL.n.n.m.H.7.1.1.7._.U.I./.<.<.5.;X/ :                             ",
"                                          4 , $.r.0.<.D././.6.5.t.# # g.-.U.@XD.%.e.D.g.V .                             ",
"                                          + M r.S.=.%.=.6.H.1.=Xx.gXsXgXO MX7.0.:.%.0.^.i                               ",
"                                            % r.,.=.:.%.<.6.^.sX8X8X;X}.8X;X8.>.=.e.0.# N                               ",
"                                            $ 1 $.>.%.:.%.,.t.E.}.c.;X9.E.;Xt.0.>.=.=.6.*                               ",
"                                            + x r.>.e.:.:.>.5.9.9.c.c.9.9.x.r.=.=.=.%.XX%                               ",
"                                            X z m =.%.:.%.=.5.E.9.x.4X}.9.c.$.%.=.>.e.0.5                               ",
"                                              + x =.%.:.e.=.8.9.9.5.t.c.}.E.t.0.>.<.0.<.%                               ",
"                                                j B %.:.=.=.8.9.E.v.8.x.9.c.=Xv.=.<.,.0.*                               ",
"                                                @ Q %.:.=.>.8.9.9.5.v.=Xc.x.=Xt.<.=.S.D.j                               ",
"                                                  8 %.:.e.=.$.t.9.E.8.=Xc.c.x.x.v.>.0.m $                               ",
"                                                  z c :.e.e.,.v.4X9.5.8.x.c.4X=X=Xr.0.A 4                               ",
"                                                  + 8 %.%.=.>.$.x.E.5.8.5.5.5.v.5.t.$.%                                 ",
"                                                    < 8 %.>.>.S.8.x.4Xv.,.r.v.$.r.8.1 $                                 ",
"                                                  X   $ c =.>.0.,.8.t.$.,.$.r.r.v.5.5 .                                 ",
"                                                      + 5 B =.e.>.v.r.S.r.v.v.6.# 0 @                                   ",
"                                                        < A 0.=.S.,.,.S.S.,.v.g., ;                                     ",
"                                                          $ M 1 $.$.6.D.D.<.D.1 S _                                     ",
"                                                            + $ * 0 # r.6.D.D * .                                       ",
"                                                                  - V 5.1.D % +                                         ",
"                                                                    _ * % N 4                                           "
};
