/* XPM */
static char *cbaf281f7bba46758e2fc5aede6eb976P4Z2GIa9En1Tds2m[] = {
/* columns rows colors chars-per-pixel */
"64 64 256 2 ",
"   c #0D0C0C",
".  c #070808",
"X  c #140C0A",
"o  c #0E110B",
"O  c #14130C",
"+  c #1D150E",
"@  c #0A0C14",
"#  c #130E16",
"$  c #0D1212",
"%  c #141314",
"&  c #1B1B16",
"*  c #1B1B1B",
"=  c #181618",
"-  c #26190B",
";  c #251B18",
":  c #30140F",
">  c #1C211B",
",  c #27231B",
"<  c #382618",
"1  c #2D3018",
"2  c #1A1926",
"3  c #1B1837",
"4  c #140E32",
"5  c #231C24",
"6  c #281B37",
"7  c #1E232D",
"8  c #232324",
"9  c #282929",
"0  c #362826",
"q  c #383427",
"w  c #272834",
"e  c #2C3335",
"r  c #363839",
"t  c #323030",
"y  c #4C1412",
"u  c #502F18",
"i  c #6E3319",
"p  c #452927",
"a  c #443738",
"s  c #4F342E",
"d  c #663A26",
"f  c #76302F",
"g  c #641622",
"h  c #3C472D",
"j  c #3C4E1C",
"k  c #4D4D30",
"l  c #795638",
"z  c #704B2F",
"x  c #596C2B",
"c  c #637830",
"v  c #69431F",
"b  c #17154D",
"n  c #2D194B",
"m  c #373B45",
"M  c #242656",
"N  c #2E334E",
"B  c #2F176B",
"V  c #242867",
"C  c #262B7A",
"Z  c #323574",
"A  c #1B2062",
"S  c #473A45",
"D  c #563845",
"F  c #473B51",
"G  c #72374C",
"H  c #572770",
"J  c #3B4448",
"K  c #3B4657",
"L  c #304F54",
"P  c #355267",
"I  c #38676D",
"U  c #45474A",
"Y  c #574647",
"T  c #484A56",
"R  c #584B57",
"E  c #4C5359",
"W  c #55585C",
"Q  c #565249",
"!  c #685858",
"~  c #6E524F",
"^  c #75664F",
"/  c #555967",
"(  c #555A75",
")  c #4E4F6B",
"_  c #6F576C",
"`  c #5A636A",
"'  c #5C6476",
"]  c #646876",
"[  c #776B77",
"{  c #6D676D",
"}  c #4B675A",
"|  c #9A331D",
" . c #8E2D15",
".. c #B2361B",
"X. c #9C3722",
"o. c #892838",
"O. c #A73B26",
"+. c #B43B26",
"@. c #B33028",
"#. c #871226",
"$. c #C63D22",
"%. c #855838",
"&. c #924F30",
"*. c #A8432A",
"=. c #B4452C",
"-. c #B9462A",
";. c #BC4C32",
":. c #B44831",
">. c #BD5135",
",. c #AD4E33",
"<. c #8D633A",
"1. c #AF6C39",
"2. c #AA491B",
"3. c #CA4A1D",
"4. c #C5492B",
"5. c #CA532D",
"6. c #C34D33",
"7. c #C94C34",
"8. c #C45235",
"9. c #CC5335",
"0. c #C95539",
"q. c #D85737",
"w. c #D74F2C",
"e. c #E65938",
"r. c #EC5530",
"t. c #D46538",
"y. c #F06636",
"u. c #8C344F",
"i. c #B03055",
"p. c #B43566",
"a. c #9A1749",
"s. c #CC376F",
"d. c #C4345B",
"f. c #8B5451",
"g. c #B0544A",
"h. c #896547",
"j. c #976748",
"k. c #937054",
"l. c #A8764A",
"z. c #B7764A",
"x. c #A87A56",
"c. c #B57B55",
"v. c #AC6A49",
"b. c #8D586E",
"n. c #AE586F",
"m. c #8E716F",
"M. c #AD7370",
"N. c #D3584A",
"B. c #EE5C45",
"V. c #D5794A",
"C. c #CB714C",
"Z. c #F26A48",
"A. c #C86978",
"S. c #C35977",
"D. c #708A35",
"F. c #758F44",
"G. c #8AAD3C",
"H. c #928E54",
"J. c #AB825A",
"K. c #B78559",
"L. c #B2965D",
"P. c #93B147",
"I. c #AA8665",
"U. c #B78966",
"Y. c #BA926B",
"T. c #BA9676",
"R. c #B18875",
"E. c #9E9171",
"W. c #C88759",
"Q. c #D68958",
"!. c #D89358",
"~. c #CA884D",
"^. c #E6975B",
"/. c #F19355",
"(. c #F0AA5D",
"). c #C68C63",
"_. c #D78A65",
"`. c #CC996C",
"'. c #C79569",
"]. c #D89869",
"[. c #CB9B73",
"{. c #C79A75",
"}. c #D49A74",
"|. c #C88778",
" X c #E59A67",
".X c #F59B6F",
"XX c #D7A57A",
"oX c #D2A172",
"OX c #E9A568",
"+X c #F4AD73",
"@X c #DAA45E",
"#X c #E0933B",
"$X c #252B83",
"%X c #29338A",
"&X c #2B3696",
"*X c #2F3193",
"=X c #2B38AE",
"-X c #262490",
";X c #481996",
":X c #531AA6",
">X c #681CB7",
",X c #6228A0",
"<X c #366F8C",
"1X c #3244B6",
"2X c #3E5284",
"3X c #485788",
"4X c #556690",
"5X c #666C89",
"6X c #6A7387",
"7X c #777789",
"8X c #697597",
"9X c #757997",
"0X c #726C90",
"qX c #7178AA",
"wX c #5755A0",
"eX c #2C3EC9",
"rX c #6E1BCF",
"tX c #7221CF",
"yX c #3047D3",
"uX c #3454ED",
"iX c #3467F5",
"pX c #636DD8",
"aX c #8B7790",
"sX c #AF6D89",
"dX c #99629C",
"fX c #CB748E",
"gX c #E259A7",
"hX c #8E24F1",
"jX c #AB2CFB",
"kX c #9322E6",
"lX c #B941BE",
"zX c #7C8299",
"xX c #7A85A8",
"cX c #7887B7",
"vX c #758AB1",
"bX c #7790C5",
"nX c #858AA8",
"mX c #858AB6",
"MX c #8A95B9",
"NX c #9399B8",
"BX c #918FAB",
"VX c #A48FA8",
"CX c #C79584",
"ZX c #CEA58A",
"AX c #DFA092",
"SX c #8998C6",
"DX c #959CC5",
"FX c #8B95CD",
"GX c #9BA3CB",
"HX c #97A3C8",
"JX c #97A7D5",
"KX c #8CA5D7",
"LX c #A3AAD3",
"PX c #A7A8CB",
"IX c #96ACE4",
"UX c #A3A8D8",
/* pixels */
"~ ^ k.k.j.~ Y r e r e J 5XmXNXMXqX( r 8 ; 2 7 M $X&X&X$XM 2 = % 2 1 j x D.D.x k 1 % * 8 1 k x c c x x h q , 8 N P <X<X<X<XL e 9 ",
"~ f.k.f.^ ~ Y S r r r E 9XMXDXDXnX( e 5 ; 2 w M %X&X&X%XM 2 = & , j x c D.D.x j > O = , q x c D.F.D.x k t 9 w J P I <X<XI L r t ",
"! _ b.! ! R U S J r m / nXDXHXDXnX/ e 8 , 5 3 V C %X%XC M 2 * > q k c D.D.D.x h > = * , j c D.D.F.D.c h 9 9 e L I I P P L J r r ",
"_ _ _ _ _ R T U J m U ] nXDXHXDXxX/ w 8 8 w M C C $X$XV M 2 = > 1 k c D.D.x k 1 > * & 1 x D.G.P.P.D.c h w 9 h E } } K m r r r m ",
"{ b.dXb._ / E U U J U ] nXDXGXDXmX/ w 5 8 N V *X*X%XC V n 2 % = 1 k k l z k k 1 * * & j D.G.G.P.P.G.D.h 9 e h W } W R Y Y Y U J ",
"[ dXdXdX0X/ E U U U T ] xXDXHXDXxX/ e 8 w N Z =X=X&XC M 3 * O % % 5 p s s p 0 & * * , k D.G.G.P.P.P.D.k e e r Y ! ! f.f.f.~ Y T ",
"9XdXdXdX0X' / E T U E 6XmXDXHXNXqX) t 9 w M %X=X=X=X$XM 7 * = & = ; 5 p p n 6 5 * * , k D.P.P.P.P.P.D.k r r a Y ~ f.n.n.n.f.R E ",
"cXmXmXaXqX4X/ W E T / zXNXHXHXNX9XT 9 8 8 M %X1XyX1X*XM 7 * & ; , 9 w 6 n B M 6 * * * h x D.H.H.H.F.c k r r a ~ f.f.n.S.n.b.! E ",
"bXbXbXcXxX5X( / E E 6XmXHXLXHXMX5Xm 9 8 8 w Z *XN M 2 % & ; ; ; * * ; ; 0 0 w 3 8 * 2 9 a ~ h.k.k.^ Q r r r S ! f.n.n.n.n.n._ / ",
"bXbXbXvX8X5X/ W E / 7XMXGXLXDXmX5Xm w w w 9 0 & ; ; - ; ; & * * O O O O - + = * 5 ; * & , a D G G R m e r U Y Y f.n.n.fXS.n._ / ",
"xXxXqX9X6X] ` ` E / zXHXLXLXHXmX5Xm 9 9 0 < - - ; ; ; * %   . o X   X O ; - ; ; 5 ; ; * 7 N ) _ _ 3X( K r h Y ~ b.sXsXsXsXn.b.{ ",
"6X7XaXm.[ ] ` ` / ' xXHXLXUXGXmX5Xm 0 < < < ; 6 % % $ $ $ $ $ o % % * % * , , ; * + ; w ) 8XqXdXFXqX8X( K J U R 0XBXVXVXsXaXm.{ ",
"9XaXaXaX[ ] ` ` ' 6XnXHXPXLXHXmX5XT t , ; - ; 5 % O o .   O X . % % * % + ; , ; O , ; 5 ( cXbXFXFXcXqX' T J K / 8XMXLXPXDXBX7X] ",
"bXSXMXnX7X] ] ] 7XnXNXGXLXLXGXMX0XU < - =   O O # # X O O % %   #   #   X X + % = , : ; r 9XSXSXcXcX9X( U J J E 0XmXDXGXGXBXnX6X",
"IXKXKXMX9X5X] 6XnXNXHXPXLXLXGXMX5Xt - < ; . . X O . .   % % & , , - , - - - + . X X + - ; R 0X8X5X5X( T U U U E _ aXVXVXPXVXaX7X",
"IXKXSXcX9X5X] 6XnXNXDXHXHXDXNXxX] 9 - ; = . X ; , % = 8 p s l k.k.j.<.<.<.%.z u     $ X < 0 t m r m m r J U T _ _ m.sXfXfXfXsXm.",
"KXKXSXnX8X] ] ] 9XnXNXNXNXNXnX9XW ; X - O % u <.<.%.%.h.l.J.U.'.`.).).).W.Q.Q.~.z y . * , , 0 9 9 e e r J U T ! b.n.A.fXfXfXsXm.",
"mXnXnX9X6X] ` ` ` ] 6X6X7X7X{ R q +   + - u l.K.K.J.J.K.K.).'.`.`.`.`.`.'.]. X].W.%.+   X , p a a r r r J J E ! M.M.A.fXfXfXM.m.",
"7X7XaX[ [ { ` ` W / / ) R R D s < - * : i ~.^. X'.'.'.'.`.'.'.`.[.[.[.[.`.]. X XOXl.< + ; p f G G D D S J J T ! M.R.|.|.|.|.R.m.",
"nXaXaXm.[ { ` ` ' 5X5X( E S D s p p - u OX(.(.OX[.{.{.{.{.{.{.{.[.`.`.`.`.}.].].^.W.u , ; p f u.u.u.G D J J T { m.U.|.|.|.|.T.E.",
"NXNXnX7X] ] ` ' 8XxXcXvX5X/ T S p y < 1.+XOXOX].}.[.{.{.{.{.{.{.`.'.'.`.`.].].].OX].v < ; p o.i.p.p.u.G U J T ! m.M.I.M.R.T.R.E.",
"JXGXNXnX6X' ` ` xXSXKXKXSX8X( K 9 < u 1.(.OX X].`.'.'.'.`.`.`.`.`.[.[.'.`.)._.].OX Xz p ; 0 o.i.s.s.p.G U J U W { m.m.m.m.R.R.m.",
"GXHXNXzX6X' ` / zXNXHXJXFXxX5XT 9 < u ~.(.(.OX}.`.`.`.[.`.`.`.`.[.}.[.[.[.`.].].OXOX&.u ; < o.i.s.s.p.u.Y U J E W ! ! ` { m.m.m.",
"GXNXBX7X' ` / / [ nXNXDXSX9X5XT 9 : d z.(.(.(.XXZXZX{.{.{.{.{.{.[.[.{.{.ZXXX}.].OX(.1.d ; < o.i.s.s.p.u.Y U J T E W / / ] [ [ [ ",
"HXBXzX] ` / / E W 6X7XaX7X[ R m 9 < d ~.(.+XOXZXCXZXY.CX{.T.}.{.T.'.I.E.E.m.m.Y.OX+XC.d < y f i.s.s.p.G D m U U ) 5X8XxXxXxXaX7X",
"NXnX6X' / W W E U T T R R Y s r 0 p z #X(.).^ Y Q Y q z k.I.Y.J.H.Q 0 8 , & < p x.OX!.&.u p f o.d.d.i.G a m U E 5XxXMXSXHXHXNXBX",
"NXnX6X` / W E E / ( ( ( R D D 0 9 s %.I.m.^ W a 0 q a < q h.R.k.z < p ~ Q k v p u z ^ &.i 0 o.i.d.p.i.G S r J / 9XMXJXJXJXJXHXMX",
"nX9X] W W E E / qXcXcXqX0X5X) t 9 p k.7X] U.~ ! k.^ ~ z r [ k k s a k p q k s ~ <.a T f.d ; f o.i.i.u.G S r J / 8XmXHXJXJXJXHXMX",
"[ { W E E T ) 6XSXKXKXFXMXqX( r * , < { / k.^ z r t t Q ! p l.h.0 k q 9 ; a q z H.k.k u d <.C.g.o.u.G s a r m T 5XxXSXHXGXJXGXNX",
"_ ! ! Q T K ) zXDXLXIXIXGXcX3X~ v.z u k.m.'.E.^ k p k ^ ~ s AX'.s h.d z z h.h.l.L.H.).<.l.+XV.N.f s s s a r m T 5XxXNXDXDXGXHXNX",
"_ / R U U K ) 9XDXLXUXIXDXcX3XM..X_.t.!.R.+X`.x.k.f.%.x.~ h.].].z x.x.%.l.l.k.I.'.R. XQ.].XX_.N.~ a a S a r m / 9XnXDXGXGXGXGXDX",
"] ) T J U E ( 9XMXHXJXJXDXcXP j.+XXXW.!.f.+XXXJ.l.x.K.}.~ U.`.].c.%.XXW.U.U.K.`.{.k.(.~.CXAXA.N.0X( ( ) S e r T 0XnXNXHXJXJXJXHX",
"4X) J S T ( 8XxXMXSXGXFXSX0XF Y .XXX{./.~.h.XXZX{.CXT.l j.AX}.{.AXl l T.T.`.{.R.<.XXOXV.v.{.V.M.bXbXqX8X) m e J W 6XnXSXJXJXJXJX",
"4XP m r T ' 9XmXSXSXSXcXxX5Xm t _.].z.~.+XL.<.j.h.l v z {.XXXXXXXX}.i d %.%.%.h.].+X!. Xz.>.C.VXKXKXFXcX5Xm w r m ) 8XcXKXJXJXJX",
"3XK r t m / 8XcXbXFXSXcX8X( m * f.Q.t.Q.^.+XoXR.I.k.x.U.U.%.U.x.z c.U.j.k.I.R.ZXOX X!.Q.C.V.CXKXJXJXKXMX5XN w w e K 5XSXJXIXIXJX",
"P N t t e m ( wXpXpXqXqX4XZ w % , _.V.V.^.@XoX{.CX{.U.U.%.h.c.x.x.j.l.K.U.Y.CX{.XXOXQ.V.Q._.aXcXDXHXSXxX( N 9 t w m ' mXJXJXJXJX",
"N e 9 9 9 w N 3X1XwX1X1X*XV w 2 O %. XC.^.(.oX`.T.Y.U.Y.I.^ l k.z k.'.'.I.I.{.[. X.XC.~.@XW.) 0XcXmXqX' J w 8 9 9 w K 8XMXJXJXSX",
"N w 9 9 9 w M Z 1X1XyX1X=XC M 3 > k OXV.~.^.].].Y.Y.Y.k.l d h.x.l z j.j.x.R.K.`.OX].1.Q.+Xc.2 S ) E T r 8 , 8 8 9 9 m ( 8XcXcXqX",
"e 8 8 8 8 w M C =X1X1X1X&XC M 3 % s OX!.z.!.].W.U.I.h.h.f.j.j.j.h.h.f.~ d h.U.`. X@X&.v.c.p $ 7 w w w 5 * * 8 8 8 7 e K 3X4X4X3X",
"8 > 8 2 2 w M $X*X*X&X%XC M 6 2 = < 1.~.,.^.!.).U.h.s s d f o.f %.%.d u v l Y.}. X~.f % O @ 5 b A A B n 3 2 > > 8 9 w N 2X4X4X3X",
"* 5 2 * 2 M C %X&X%XC V M 3 2 # % : u z &.C.Q.!.).h.z z f.g.g.g.M.M.v.z.k.H.K.W.Q.j.i # = 4 A B ;X;X;XB n 2 * 2 * 2 w K 4XqX8X8X",
"* 2 * * 7 V %X&X&X%XC V b 2 % O = : y i f &.K.W.K.x.x.U.x.<.j.f.j.v.).U.Y.U.x.c.c.&.%.  % 3 B :XrXtX>X;Xn 2 = * * 2 w ) 8XcXcXxX",
"& * * * 3 V %X&X%X$XV M 3 = % o + : y g f i &.C.l.x.J.c.c.l.%.d l J.U.U.W.U.c.C.&.,.j.. $ 3 ;X>XkXkXrX:XB 3 = & = * e / xXNXNXNX",
"& = = = 3 V $X%XC V M 3 2 % $ % + : y g g z.&.v.z.c.).I.I.U.I.x.U.T.'.W.'.).~.v.z _.<.. $ 3 H >XtXtX>X;Xn 2 = = % = w / zXNXNXNX",
"* * = = 3 A $X%XC A b 4 # % # # % : y g g V.1.u &.c.W.K.Y.T.T.U.U.[.'.{.{.C.1.v v.+X%.@ = 4 B :X,X,X;XB n = % % = % 8 T 7XBXNXNX",
"= % % = 3 C &X=X&X$XA 3 = O O O X : y g g V.^.%.u %.l.K.K.U.U.K.c.U.Y.U.).v.u &._..Xl . X 3 B :X>X>X:XB n 2 % % = % * m ] nXBXNX",
"% % O % b $X=XyXyX=X$Xb 2 % O O : y g #.a.N./.Q.%.y u ~ l j.j.j.h.h.^ l l y d _.]./.l . + b ;X>XtXtXrX;XB 4 % % % % % r ] nXNXHX",
"$ o o $ b -XeXyXyX=X-XA 4 @     : g #.i.p.S. XQ.~.j.p 5 ; < < s < p < ; ; z W.W.]..Xd X : b ;XtXhXhXhXrX;Xb # o $ % = r ] BXGXPX",
"o @   % A =XyXyXyX=X-XA 4 # o X - y H b.lXA. X!.C.W.l.v - o   . @ . - d v.Q.Q.).].(.N.y  .g.H hXjXjXjXhX>Xb $ o # . X t { BXPXPX",
"    X 2 A =XyXyXuXeX-XA 4   @ @ $ p u.N.r.y. X_.W.~.Q.W.c.%.v d u z x.W.Q.W.W.}._.@X/.<.- 0.Z.N.lXjXjXjXrXB 2 @   $ 2 N 5XmXDXPX",
"X @ @ b $XyXuXuXuXyX=XB 3 @ . ,  .4.w.3.e.5.]._.'.W.W.Q._.K.c.l.J.c.K.W.Q.Q.).`.}.OX/.v.y 7.Z.3.y.gXlXlXhX;X4 # . = N 4XmXDXJXJX",
"X @ @ 3 %XyXiXiXuXyX=XC 4 - X.w.*.r.3.-.B.3.^.].{.).).).).K.J.J.x.x.K.W.).).).`.].^.^.%.i e.y.0.B.t.w.Z.gX,Xb @ = e ' mXFXGXGXHX",
"$ @ X 3 =XyXuXiXiXuX=Xb D N.q.X.4...7.$.e.5.!.@X`.'.).).K.K.x.x.I.J.K.U.'.[.}.}. X.X).d O.B.3.w.y.e.9.0.e.B.f.o . m 8XMXPXPXGXLX",
"@ @ # A =XyXiXiXiXuX,Xn.Z.$.+.w.w. .w.-.+.e.C.XX'.[.'.Y.K.K.J.l.x.c.K.'.'.[.`.}. X X<. .r.r.:.9.B.B.e.q.-.w.Z.9.f a ( mXmXNXGXJX",
"@ . 4 A =XuXiXpXdXn.Z.y.$.4.q.w.O.| $.q. .r.3.|.XX{.T.T.Y.K.x.J.J.J.K.).'.{.[.}.OXU.&.r.e.3.3.e.t.w.w.e.e.e.B.B.y.N.f./ 0XmXDXGX",
"  . b $XeXiXpXB.3.y.q.+.-.e.w.O.O.@.2.r.@.+.r.*.K.[.{.T.U.Y.Y.I.I.U.Y.Y.T.{.`.oX).*.w.w.>.=.w.0.e.q.q.9.q.q.q.q.t.e.y.N.n.BXUXIX",
".   4 -XyXdXN.r.Z.7.+.4.q.w.-.O.O.+.-.e.$. .=.$.&.z.{.T.Y.Y.Y.Y.U.U.U.Y.T.{.).z.+.7.9.4.-.5.5.9.e.q.q.q.9.9.9.9.5.q.B.Z.Z.Z.CXPX",
"  . 5 f.Z.y.y.e.4.-.-.9.q.4.-.:.+.+.-.w.q.| +...@.| &.x.U.U.U.Y.I.U.Y.Y.U.v.,.+.4.4.4.4.6.9.5.9.q.q.q.q.9.9.9.9.5.7.7.7.q.y.Z.Z.",
". i y.y.y.e.w.7.-.-.4.9.8.-.=.=.*.-.4...q.+.+...|  . .| O.,.,.<.<.&.&.*.X.| O.+.4.4.4.7.7.7.4.q.q.q.q.q.9.9.9.9.9.5.4.6.9.q.e.y.",
",.Z.Z.e.q.5.-.-.;.-.4.5.;.:.=.-.*.6.4...4.4.+.=.O.|  .i  . .X.X.| | | X.| | O.+.-.6.9.9.6.6.7.q.q.q.q.9.9.0.0.8.g.;.4.9.;.8.N.B.",
"Z.e.y.e.7.;.-.4.=.4.5.5.:.:.:.-.-.4.-.*.-.7.+.*.=.O.O.O.|  . .i  . . .| X.*.:.:.:.6.0.6.9.9.8.9.q.q.q.0.9.0.0.8.8.>.;.6.-.9.q.w.",
"e.Z.e.7.9.4.7.g.=.6.5.4.=.:.:.-.:.-.-.*.*.-.+.O.O.*.=.*.O.*.*.O.&.*.*.O.O.*.*.*.;.:.6.;.8.8.6.9.9.9.0.0.0.0.0.8.5.5.8.6.4.0.0.0.",
"e.e.q.;.-.4.-.:.;.6.4.-.-.:.=.=.:.-.;.*.O.2.*.=.+.O.O.O.*.*.O.O.+.+.O.X.O.*.=.:.:.=.;.;.6.;.6.0.0.9.0.0.8.8.8.8.6.>.;.6.6.;.>.8.",
"e.q.9.8.-.4.6.-.-.;.;.=.=.-.=.:.=.-.=.:.*.*.O.+.O.*.*.O.*.O.O.O.X.X.X.O.*.:.:.=.=.=.;.-.;.;.;.8.0.8.8.8.>.>.8.8.7.8.-.4.6.;.>.6."
};
