/* XPM */
static char *aef8f99b180b4e7f9ac26f484e0cd58fHOJ0y24TRWVo8hee[] = {
/* columns rows colors chars-per-pixel */
"40 60 27 1 ",
"  c #1F97EE",
". c #E1EBF1",
"X c gray94",
"o c #E3EBF1",
"O c #EEEFF1",
"+ c #259AED",
"@ c #E6EDF0",
"# c #EAEEF1",
"$ c #3AA2ED",
"% c #A8B0C2",
"& c #2E9DED",
"* c #49A8ED",
"= c #DDE9F1",
"- c #D6E6F0",
"; c #CBE2F0",
": c #74BCEF",
"> c #BBDBF0",
", c #A8D2F0",
"< c #58AFEE",
"1 c #6EA7D7",
"2 c #89C5EF",
"3 c #65B3ED",
"4 c #96CBF0",
"5 c #ADBED6",
"6 c #BBC3D5",
"7 c #8FB8DD",
"8 c #C3D0E5",
/* pixels */
"                                        ",
"                                        ",
"                                        ",
"                                      +&",
"                                     &75",
"                              &$$$$$*565",
"                             $58888886%%",
"                            &76666665%%%",
"                           +75%%%%%%%%%%",
"                      +<33375%%%%%%%%%53",
"                      *6888711%%%%%%%688",
" $333*                1%%%%3<75%%%%%%71&",
" *66657$           &&$%%%%6671111111$+  ",
" &75%%%51$$$$$+   &755%%%%%1+           ",
"  +$11111375551+  +11%%%%1***+          ",
"$&       *31111&    &1111&*7<+          ",
"**&      $*&                            ",
"             +                          ",
"         + +++++++++++++ + + ++++++++++ ",
"     + ++++++++++++++++++++&+&++&+++++++",
"++++++++&&&&&&&&&&&&&&&&&&&&&&&$&&$&&&&&",
"++++&&&&&&$$$$$$$$$$$$$$$$$$$$$$$$$$$$$$",
"&&&&$$$$$*$******************<*<*<*****$",
"$$$$$****<<<<<<<<<<<<<<<<<<3333333333<<<",
"***<<<<3333:3:::::::3:3::::::::2:2:::::3",
"<<333::::2222222222222222224444444444422",
":::2224444,4,,,,,,,,,4,,,,,,,>>>>>>,,,,,",
"2444,,,,>>>>>>>>>>>>>>>>>>>>;>;>;>;;;>>>",
",,>>>>;;;;;;;-;-;;;;;;;;;;---------;--;;",
">;;;;;;-;-------=-=---------=-======-=--",
";----===================================",
"-=-========.==..===========............=",
"=======.................................",
"====....................................",
"........................................",
"........................................",
"........................................",
"........................................",
"..............................oooooo....",
".........................ooooooooooooooo",
".....................ooooooo@@@@@@@@@ooo",
".................oooooo@@@@@@@@@@@@@@@@@",
"..............ooooo@@@@@@@@###########@@",
"...........oooooo@@@@@@#########OO######",
"........oooooo@@@@@@######OOOOOOOOOOOO##",
".....oooooo@@@@@@######OOOOOOOOOXOOOOOOO",
"..oooooo@@@@@######OOOOOOOXXXXXXXXXXXXOO",
"ooooo@@@@@######OOOOOOXXXXXXXXXXXXXXXXXX",
"oo@@@@@@#####OOOOXXXXXXXXXXXXXXXXXXXXXXX",
"@@@@@@####OOOOXXXXXXXXXXXXXXXXXXXXXXXXXX",
"@#######OOOOXXXXXXXXXXXXXXXXXXXXXXXXXXXX",
"#####OOOOOXXXXXXXXXXXXXXXXXXXXXXXXXXXXXX",
"OOOOOOOOOXXXXXXXXXXXXXXXXXXXXXXXXXXXXXXX",
"OOOOOOOXXXXXXXXXXXXXXXXXXXXXXXXXXXXXXXXX",
"XXXXXXXXXXXXXXXXXXXXXXXXXXXXXXXXXXXXXXXX",
"XXXXXXXXXXXXXXXXXXXXXXXXXXXXXXXXXXXXXXXX",
"XXXXXXXXXXXXXXXXXXXXXXXXXXXXXXXXXXXXXXXX",
"XXXXXXXXXXXXXXXXXXXXXXXXXXXXXXXXXXXXXXXX",
"XXXXXXXXXXXXXXXXXXXXXXXXXXXXXXXXXXXXXXXX",
"XXXXXXXXXXXXXXXXXXXXXXXXXXXXXXXXXXXXXXXX"
};
