/* XPM */
static char *ef188632316c45a3e16c74f760072f7eisZHLjEMR5emG3E8[] = {
/* columns rows colors chars-per-pixel */
"60 22 33 1 ",
"  c #F6F6F6",
". c #F6F7F3",
"X c #FFFFFE",
"o c #F4F5F0",
"O c #F6F6F2",
"+ c #FDFDFB",
"@ c gray96",
"# c #221E23",
"$ c #29252A",
"% c gainsboro",
"& c #3C3B3B",
"* c #1C171D",
"= c #F8F9F4",
"- c #07050C",
"; c #FAFBF8",
": c #131019",
"> c #474246",
", c #322E31",
"< c #36353A",
"1 c #939397",
"2 c #A7A6A8",
"3 c #524F56",
"4 c #B8B8BB",
"5 c #5C5A60",
"6 c #E9EAE8",
"7 c #E2E2E1",
"8 c #F2F2EF",
"9 c #817F81",
"0 c #D5D4D4",
"q c #706F75",
"w c #CECECF",
"e c #68666B",
"r c #7A7A81",
/* pixels */
"                                                            ",
"                         =@8@@                              ",
"                        @6XXX=8@                            ",
"  OOOO.................O=45r48X;oo...................OOOOO  ",
"  OOO....................;4<-<17X+oo..................OOOO  ",
"  O......................oX;1:-$r0XXoo...................O  ",
"  ........................o.X03--#qwXXOoO.OoooooO.........  ",
"  .........................O8X.1>:-#54;X.8=XXXXX+oo.......  ",
"  ..................Ooooo8o..o.X823:-*34oX6253597XXo......  ",
"  .................o;XXXXX+o...o.XO23*-:<1q-----$34Xo.....  ",
"  ................o+7423110XO...Oo.XO4>::--##***:-*2Xo....  ",
"  ...............o+6,-----3wo......oOX61:-:####**#*:w+o...  ",
"  .............O8O+5-***:&#-2Xo......8;X4>:$######$:1Xo...  ",
"  ..........ooo;XXr:#***:-,27=O.......o8Xq-$#$$#*##*9X8o..  ",
"  .......Oo.+XX729##*#**:#7X=O........O=6##$$$$##*#*3;X+O.  ",
"  ....OoO+Xo049>$$,#####:9%7=.........O.oq:$,$$$,,$$#<1w+o  ",
"  ..Oo;X+%2q&,$,&&<&#$$$*&*2Xo.........O=Xe-$$<&&>&,<#-qX8  ",
"  ..;X625&,&&><<&&&&,$$#$*qO............O.;1,,>&<&&&<>#5Xo  ",
"  O.71&,,&&&>>53&&&&&$$$#36+o............O.X5$>>&&&>>><1Xo  ",
"    7w%%%%%%%%%7%%%%%00%06;@               8%%%%%%%%%%%6    ",
"    ;X++++++++;;++++++X+X;@                 +++++++++++=    ",
"    @@@@@@@@@@@@@@@@@@@@@@                  @@@@@@@@@@@@    "
};
